<?xml version="1.0" encoding="utf-8"?>
<!-- Generator: Adobe Illustrator 28.0.0, SVG Export Plug-In . SVG Version: 6.00 Build 0)  -->
<svg version="1.1" id="レイヤー_1" xmlns="http://www.w3.org/2000/svg" xmlns:xlink="http://www.w3.org/1999/xlink" x="0px"
	 y="0px" viewBox="0 0 370 120.1" style="enable-background:new 0 0 370 120.1;" xml:space="preserve">
<style type="text/css">
	.st0{fill:#DF0011;}
	.st1{fill:#007BC7;}
</style>
<path class="st0" d="M49.5,120.1L0,89.8V0h99v89.8L49.5,120.1z M9.9,84.3l39.6,24.2l39.6-24.2V9.9H9.9V84.3z"/>
<polygon class="st0" points="35.7,17.3 35.7,56.3 27.2,51.3 27.2,17.3 17.3,17.3 17.3,80.2 27.2,86.2 27.2,62.7 35.7,67.7 
	35.7,91.3 45.6,97.3 45.6,17.3 "/>
<path class="st1" d="M81.5,17.3L81.5,17.3L81.5,17.3l-9.9,0v0l-13.5,0v0h-4.9v80l9.9-6V68.1l18.4-10.6v-0.2h0V27.2h0V17.3z
	 M71.7,51.7l-8.6,4.9V27.2h8.6V51.7z"/>
<g>
	<g>
		<g>
			<path class="st0" d="M123.3,67v-1.9h6.4c0.2,0,0.7,0,0.9-0.1l0.9,1.1c-0.3,0.4-0.4,0.7-0.5,0.9c-0.5,1.4-0.8,2.2-1.6,3.7
				c1,0.8,3,2.8,4,4.2c-0.4,0.6-1.2,1.5-1.3,1.7c-0.7-1.1-1.7-2.7-3.6-4.3c-0.9,1.3-2.9,3.5-5.1,4.6c-0.4-0.8-0.6-1.1-1.2-1.7
				c0.8-0.3,2.6-1.1,4.5-3.4c1.4-1.7,1.9-3,2.4-4.7H123.3z"/>
			<path class="st0" d="M139.1,71.2c0.1,0.1,0.2,0.1,0.2,0.2c0,0.2-0.2,0.2-0.3,0.1c-1,1.8-1.4,2.4-2.6,3.8
				c-0.4-0.4-0.9-0.9-1.5-1.2c1.4-1.2,2.2-2.6,2.8-3.9L139.1,71.2z M139.9,64.3l1.7,0.1c0.1,0,0.3,0,0.3,0.2c0,0.1-0.1,0.2-0.2,0.2
				v2.7h4.3v1.8h-4.3v5.5c0,1,0,2.2-2,2.2c-0.2,0-0.6,0-0.9-0.1c0-0.3-0.1-0.9-0.5-2c0.3,0.1,0.8,0.1,1.2,0.1c0.5,0,0.5-0.2,0.5-1.1
				v-4.7h-4.3v-1.8h4.3V64.3z M143.9,70.1c1,1.1,2.2,2.9,2.6,3.7c-0.4,0.4-1,1-1.3,1.3c-0.6-1.3-1.8-3-2.6-3.9L143.9,70.1z
				 M146.5,65c0,0.8-0.5,1.3-1.2,1.3c-0.6,0-1.2-0.6-1.2-1.3c0-0.8,0.5-1.4,1.2-1.4C146,63.6,146.5,64.2,146.5,65z M144.7,65
				c0,0.4,0.3,0.7,0.6,0.7c0.3,0,0.6-0.3,0.6-0.7c0-0.4-0.3-0.7-0.6-0.7C145,64.3,144.7,64.6,144.7,65z"/>
			<path class="st0" d="M159,69.7v2.1h-11v-2.1H159z"/>
			<path class="st0" d="M161.8,65.6c0.6,1,1.2,2.5,1.5,3.4c-0.3,0.1-1.1,0.6-1.6,0.8c-0.7-2.1-1.2-3.1-1.5-3.5L161.8,65.6z
				 M171.1,65.7c0.2,0.1,0.2,0.1,0.2,0.2c0,0.2-0.2,0.2-0.3,0.2c-0.7,3.5-1.8,6-3.7,7.9c-0.4,0.4-1.9,1.9-4.1,2.9
				c-0.3-0.7-0.6-1-1.2-1.6c5.2-1.9,6.8-7,7.2-10.2L171.1,65.7z M165.1,64.7c0.5,1,1,2.4,1.3,3.5c-0.7,0.3-0.7,0.3-1.5,0.7
				c-0.3-1.2-0.8-2.6-1.3-3.6L165.1,64.7z"/>
			<path class="st0" d="M181.1,77.3h-1.6v-5.5l0.6,0.1c-0.5-0.4-1-1-1.5-1.9h-0.4c-0.4,0.5-0.9,1.2-1.5,1.8l0.8,0.1
				c0.1,0,0.3,0,0.3,0.2c0,0.2-0.1,0.2-0.3,0.3c0,1.1-0.2,3.9-2.7,5.1c-0.2-0.6-0.8-1.1-1.1-1.4c1.2-0.4,1.8-1.4,2-1.7
				c0.3-0.7,0.3-1.6,0.3-2c-0.6,0.5-1.4,1-2.4,1.5c-0.2-0.5-0.7-1.1-1.1-1.4c1.3-0.3,2.8-1.2,4-2.6h-2.6v-5.6h9.6V70h-2.8
				c1.2,1.4,3.2,2.3,4.1,2.5c-0.5,0.6-0.6,0.8-1,1.5c-1-0.4-2-1.1-2.4-1.4V77.3z M177.6,65.7h-2.4v0.9h2.4V65.7z M177.6,67.8h-2.4
				v0.9h2.4V67.8z M179.3,66.6h2.4v-0.9h-2.4V66.6z M179.3,68.7h2.4v-0.9h-2.4V68.7z"/>
			<path class="st0" d="M191.2,64.7c0.1,0,0.3,0.1,0.3,0.2c0,0.1-0.1,0.2-0.3,0.2c-0.2,1.2-0.3,1.6-0.4,1.9c0.9,0,3-0.1,3,3.6
				c0,2.2-0.6,4.3-1.2,5.3c-0.4,0.6-1,1-1.9,1c-0.2,0-0.7,0-1.3-0.2c0-0.1,0-0.3,0-0.5c0-0.5-0.1-1.1-0.2-1.7
				c0.2,0.1,0.6,0.3,1.2,0.3c0.4,0,0.7-0.1,0.9-0.4c0.4-0.5,0.8-2.1,0.8-3.9c0-1.6-0.7-1.8-1.2-1.8c-0.2,0-0.4,0-0.5,0
				c-0.6,2.4-1.5,5.1-3.3,7.9c-0.5-0.4-1.1-0.8-1.6-1c0.5-0.7,2.2-2.9,3.1-6.5c-0.8,0.2-1.7,0.5-2.3,0.8l-0.6-2
				c0.5-0.1,2.8-0.7,3.3-0.8c0.3-1.4,0.4-2.5,0.4-3.2L191.2,64.7z M194.8,65.6c1.4,1.8,2.3,4.2,2.3,5.3c0,0.7-0.2,1.1-0.9,1.5
				c-0.1,0.1-0.6,0.3-1.3,0.5c-0.2-0.7-0.4-1.1-0.6-1.7c0.5-0.1,1.1-0.2,1.1-0.8c0-0.2-0.2-1.7-1.9-3.9L194.8,65.6z"/>
			<path class="st0" d="M202.5,67.2c0.1,0,0.2,0.1,0.2,0.2c0,0.2-0.2,0.2-0.3,0.2c-0.3,0.8-0.7,2.1-0.9,3c1.3-1.3,2.9-1.7,3.9-1.7
				c2.1,0,3.2,1.7,3.2,3.5c0,2.8-2.4,4.6-6.5,4.6c-0.4,0-0.7,0-1,0c-0.1-0.7-0.2-1.4-0.5-2.1c0.4,0.1,0.9,0.2,1.8,0.2
				c0.8,0,4.4-0.1,4.4-2.6c0-0.8-0.4-1.8-1.7-1.8c-2.2,0-3.8,2-4.2,2.6l-1.5-0.6c0.4-2.6,0.7-4,1.3-6.1L202.5,67.2z M202,63.9
				c0.9,0.2,2.8,0.6,4.4,1.7c-0.4,0.6-0.6,1.1-1,1.8c-1.2-0.9-2.9-1.6-4-1.8L202,63.9z"/>
			<path class="st0" d="M213.5,77.4h-1.6v-6.6c-0.3,0.6-0.5,0.8-0.7,1.1c-0.2-0.3-0.5-0.9-0.9-1.3c1.4-1.8,2.5-5.3,2.7-6.6l1.5,0.5
				c0.1,0,0.2,0.1,0.2,0.2c0,0.2-0.3,0.3-0.4,0.3c-0.2,0.7-0.4,1.6-0.9,2.8c0.2,0.1,0.4,0.1,0.4,0.3c0,0.1-0.1,0.2-0.2,0.2V77.4z
				 M216.1,72h-1.5v-4.6h2.9v-0.8h-3.2v-1.5h3.2V64l1.5,0.1c0.1,0,0.3,0.1,0.3,0.2c0,0.1-0.2,0.2-0.3,0.3v0.5h3.3v1.5H219v0.8h2.9
				V72h-3c-0.1,0.7-0.2,1.4-0.5,2c0.6,0.4,1.7,1.3,4.2,1.7c-0.4,0.4-0.7,1.4-0.8,1.7c-1-0.3-2.9-1-4.2-2c-0.6,0.7-1.8,1.5-3,2
				c-0.2-0.4-0.4-0.9-1-1.5c1.4-0.4,2.3-1.1,2.8-1.6c-0.7-0.8-1-1.2-1.2-1.6L216.1,72z M217.5,70.5v-1.5h-1.4v1.5H217.5z M216.3,72
				c0.4,0.5,0.8,1,0.9,1.1c0.1-0.4,0.2-0.6,0.3-1.1H216.3z M219,68.9v1.5h1.4v-1.5H219z"/>
			<path class="st0" d="M227.2,65.5c0.2,0.1,0.3,0.1,0.3,0.2c0,0.2-0.2,0.2-0.3,0.2c-0.4,1.4-0.7,2.9-0.7,4.4c0,2.1,0.6,3.5,1.1,3.5
				c0.5,0,1.1-1.6,1.4-2.4c0.2,0.3,0.6,0.8,1.1,1.3c-0.9,2.7-2,3.7-2.7,3.7c-0.8,0-2.6-1.9-2.6-6.3c0-1.8,0.3-3.5,0.6-5.3
				L227.2,65.5z M233.5,65.7c1.7,2.7,2.4,5.3,2.5,7.4c-0.3,0.1-0.6,0.2-1.8,0.9c-0.2-3.2-1-5.4-2.2-7.3L233.5,65.7z"/>
			<path class="st0" d="M246.1,64.4c0.1,0,0.2,0.1,0.2,0.2c0,0.1,0,0.1-0.2,0.2c1.1,2,2.6,2.9,3.5,3.5c-0.6,0.6-0.8,0.8-1,1.2
				c-0.4-0.4-0.7-0.6-1.1-0.8v1.1h-1.6v0.8h3.1v1.4h-7.3v-0.8c-0.3,0.2-0.6,0.3-1.1,0.6v3.9c0,1.1-0.1,1.7-1.9,1.7
				c-0.2,0-0.3,0-0.4,0c-0.1-0.7-0.2-1.2-0.5-1.8c0.5,0.1,0.8,0.1,0.9,0.1c0.4,0,0.4-0.2,0.4-0.6v-2.7c-0.4,0.2-0.7,0.3-1,0.4
				c0,0.2-0.1,0.4-0.2,0.4c-0.1,0-0.2-0.2-0.2-0.3l-0.3-1.7c0.3-0.1,0.6-0.2,1.6-0.6v-2.7h-1.5v-1.7h1.5v-2.3l1.6,0.1
				c0.1,0,0.2,0,0.2,0.2c0,0.1-0.1,0.2-0.3,0.3v1.8h1v1.3c1.6-1.3,2.5-3,2.7-3.7L246.1,64.4z M242.8,68.7c-0.3,0.3-0.5,0.4-0.8,0.6
				c-0.7-0.8-0.7-0.8-1.2-1.1c0.2-0.1,0.2-0.1,0.3-0.2h-0.5v2c0.4-0.2,0.7-0.3,1.1-0.5c0,0.2,0,0.5,0,1h2.7v-0.8h-1.6V68.7z
				 M243.6,76.8v0.5h-1.4v-4.8h6.3v4.8h-1.5v-0.5H243.6z M244.4,68.4v-1.1l1.4,0.1c0.1,0,0.2,0.1,0.2,0.2c0,0.1-0.1,0.2-0.2,0.2v0.6
				h1.3c-0.7-0.6-1.3-1.2-2.1-2.5c-0.3,0.5-0.8,1.4-1.9,2.5H244.4z M246.9,75.4V74h-3.3v1.4H246.9z"/>
			<path class="st0" d="M262.2,66.4c-3.2,0-6,3-6,5.6c0,1.7,1,2.8,3.7,3c-0.5,1.1-0.7,1.8-0.8,2.2c-1.9-0.5-4.6-1.8-4.6-5.1
				c0-2,1-3.6,2.7-5.1c-0.8,0.1-4.6,0.6-5.8,0.9l-0.2-2.3c0.2,0,0.5,0,0.8,0c0.9,0,6.2-0.2,9.9-1.4L262.2,66.4z"/>
			<path class="st0" d="M271.7,65.9c0.3,0,0.6,0,0.9-0.1l1.3,1.2c-0.2,0.3-0.3,0.5-0.7,1.7c-1.4,3.7-2.6,5.9-6.7,8.4
				c-0.3-0.5-0.7-1-1.3-1.5c1.8-0.9,4.9-2.6,6.4-7.8h-8v-1.8H271.7z M275.1,64.9c0,0.7-0.5,1.3-1.2,1.3c-0.6,0-1.2-0.6-1.2-1.3
				c0-0.8,0.5-1.4,1.2-1.4C274.6,63.5,275.1,64.1,275.1,64.9z M273.3,64.9c0,0.4,0.3,0.7,0.6,0.7c0.3,0,0.6-0.3,0.6-0.7
				c0-0.4-0.3-0.7-0.6-0.7C273.6,64.2,273.3,64.5,273.3,64.9z"/>
			<path class="st0" d="M284.7,68.2c0.6,0,0.9-0.1,1.1-0.1l1.1,0.9c-0.2,0.5-1.1,2.5-1.3,2.9c-1.5,3.1-3.2,4.4-5.7,5.6
				c-0.3-0.6-0.7-1.1-1.2-1.6c1.9-0.7,4.4-1.9,5.7-5.8h-8v-1.8H284.7z M285.3,64.7v1.8H278v-1.8H285.3z"/>
			<path class="st0" d="M292,71.7c-0.2,0.2-1.3,1.3-1.3,2c0,0.4,0.2,0.6,0.3,0.7c0.6,0.4,2,0.4,2.7,0.4c2.7,0,4.2-0.5,4.8-0.7
				c0.1,0.5,0.2,1.3,0.4,2.1c-1.7,0.5-4.3,0.6-5.2,0.6c-2.9,0-4.8-0.6-4.8-2.8c0-0.7,0.2-1.7,1.9-3.4L292,71.7z M297.2,66.7
				c-1.6,0.8-2.8,2.1-3.4,2.8c-0.5-0.7-0.6-0.7-1-1.3c0.4-0.4,1-0.9,1.5-1.3c-1.5,0.2-3.5,0.3-4.5,0.2l-0.1-2.1
				c0.9,0.2,2.4,0.2,3,0.2c1.9,0,2.9-0.1,3.7-0.3L297.2,66.7z M297.8,64.8c0.3,0.3,0.9,1,1.2,1.5c-0.3,0.3-0.4,0.5-0.7,0.9
				c-0.5-0.8-0.7-1-1.2-1.6L297.8,64.8z M298.8,63.6c0.5,0.5,0.8,0.9,1.2,1.5c-0.3,0.2-0.5,0.5-0.7,0.9c-0.3-0.5-0.9-1.2-1.1-1.5
				L298.8,63.6z"/>
			<path class="st0" d="M310.7,68.2c0.1,0,0.2,0.1,0.2,0.2c0,0.2-0.2,0.2-0.3,0.2c-0.1,0.8-0.2,1.5-0.6,2.9c0.5,0.4,1.4,0.9,2,1.6
				c-0.5,0.9-0.6,0.9-1,1.8c-0.3-0.4-0.7-0.8-1.6-1.4c-0.4,0.8-1.3,2.7-2.9,3.9c-0.4-0.6-0.8-0.9-1.4-1.3c1.2-0.6,2.3-2.3,2.8-3.5
				c-0.9-0.5-1.5-0.7-2.6-1c-1.4,3.2-1.9,4.5-3.1,4.5c-0.9,0-1.9-0.9-1.9-2.3c0-1.8,1.4-4,4-4c0.2-0.5,0.9-2.5,1-2.9
				c-1.3,0.4-2.4,0.6-2.9,0.6l-0.4-2.1c2,0,3.8-0.4,4.6-0.9l1.1,1.1c-0.8,1.2-1.7,3.7-1.9,4.3c1.1,0.2,2.1,0.7,2.5,0.9
				c0.4-1.5,0.4-2.7,0.4-3.2L310.7,68.2z M301.8,73.6c0,0.5,0.3,0.5,0.3,0.5c0.4,0,1.3-2.1,1.5-2.7
				C302.9,71.4,301.8,72.2,301.8,73.6z"/>
			<path class="st0" d="M319.2,64.2c0.1,0,0.3,0.1,0.3,0.2c0,0.1-0.1,0.2-0.3,0.2c-0.1,0.4-0.2,0.6-0.4,0.9c1.8-0.3,2.4-0.6,2.9-0.7
				l0,1.9c-1.2,0.2-2.5,0.5-3.7,0.6c-0.2,0.3-0.4,0.9-0.7,1.3c0.5-0.3,1.1-0.3,1.2-0.3c0.2,0,1.4,0,1.9,1.3c0.9-0.5,2.2-1.1,2.7-1.4
				l0.6,2c-1.1,0.4-2.1,0.8-3,1.2c0,0.6,0.1,1.1,0.1,1.5c0,0.6,0,1.1,0,1.4c-0.1,0-1.1,0-1.7,0c0.1-0.7,0.1-0.9,0.1-2
				c-1.4,0.9-1.9,1.5-1.9,2.1c0,0.7,0.6,0.9,2.1,0.9c0.5,0,1.9,0,4-0.7c-0.2,0.8-0.2,1.4-0.2,2c-1.6,0.4-3.1,0.4-3.5,0.4
				c-0.7,0-4,0-4-2.5c0-2,2.6-3.6,3.4-4.1c-0.1-0.4-0.4-0.8-1-0.8c-1,0-1.9,0.9-3.1,3.1l-1.5-1c0.5-0.6,1.8-2.5,2.8-4.3
				c-0.6,0-1,0-2,0v-1.8c0.3,0,1.1,0.1,2,0.1c0.5,0,0.6,0,0.8,0c0.1-0.2,0.5-1.1,0.7-2L319.2,64.2z"/>
			<path class="st0" d="M325.6,66.4c0.4,0.1,0.7,0.1,1.4,0.1c0.3,0,0.7,0,1.4-0.1c0.3-1.2,0.4-1.9,0.5-2.5l1.7,0.6
				c0.2,0.1,0.2,0.1,0.2,0.2c0,0.2-0.2,0.2-0.3,0.2c-0.1,0.2-0.3,1-0.3,1.2c0.8-0.2,1.2-0.4,1.6-0.5c0,0.5,0,1.3,0,1.9
				c-0.3,0.1-1,0.3-2.1,0.5c-0.3,1.2-1.6,4.9-2.9,7c-0.3-0.2-0.9-0.5-1.6-0.8c1.6-2.6,2.4-5.2,2.7-6c-0.4,0-1.4,0.1-2.1,0.1
				L325.6,66.4z M333.7,70.2c-0.4,0.6-0.5,0.9-0.5,1.5c0,0.6,0.1,1.2,0.1,1.5c0.8,0.4,2,1.2,2.7,1.9c-0.4,0.5-0.9,1.3-1,1.5
				c-1.1-1-1.3-1.1-1.7-1.4c-0.2,1.9-1.8,1.9-2.5,1.9c-1.8,0-2.8-0.9-2.8-2.3c0-0.9,0.6-2.2,2.4-2.2c0.4,0,0.9,0.1,1.1,0.1
				c-0.1-0.7-0.1-1.1-0.1-1.3c0-1.1,0.6-1.9,0.9-2.1L333.7,70.2z M330.6,74.1c-0.4,0-1,0.2-1,0.7c0,0.7,0.8,0.7,1.1,0.7
				c1,0,1-0.6,1.1-1.1C331.2,74.1,330.7,74.1,330.6,74.1z M333,66.6c2,0.7,2.7,1.3,3.3,1.9c-0.3,0.4-0.6,1-1,1.6
				c-0.9-0.9-2.2-1.5-3.2-1.9L333,66.6z"/>
			<path class="st0" d="M345.7,65c0.1,0.1,0.2,0.1,0.2,0.2c0,0.1,0,0.2-0.2,0.2c0,0-0.1,0-0.2,0c-0.5,0.6-2.7,2.7-4.6,4.4
				c-0.5,0.5-0.6,0.6-0.6,0.7c0,0.2,0.1,0.3,0.5,0.5c0.2,0.1,3.6,2.6,5.3,5c-0.6,0.6-0.8,0.9-1.3,1.7c-1.1-1.8-4.2-4.6-5.5-5.6
				c-1.2-0.9-1.3-0.9-1.3-1.5c0-0.3,0-0.5,1.1-1.5c1.6-1.4,3.4-3.2,5.1-5.4L345.7,65z"/>
			<path class="st0" d="M358.6,69.7c-3.2,0-5.6,2.1-5.6,4.1c0,1,0.4,1.8,3.6,1.8c-0.3,0.8-0.4,1.3-0.6,1.8c-1.9-0.1-4.8-0.4-4.8-3.4
				c0-1.7,1.1-2.8,1.7-3.4c-1.8,0.3-3.8,0.8-5.1,1.3l-0.4-2.2c0.5,0,1.4-0.1,3.1-0.3c0.4-0.4,1.3-1.2,2.2-2.2
				c0.1-0.2,0.4-0.4,0.7-0.8c-2.3,0.2-2.8,0.3-3.4,0.3l-0.1-1.9c0.3,0,0.7,0,1.4,0c0.9,0,2.5-0.1,4-0.3c0.4-0.1,0.7-0.1,1.1-0.3
				l0.7,1.2c-0.6,0.5-1.9,1.5-3.9,3.6c3.7-0.7,4.1-0.8,5.4-1.2L358.6,69.7z"/>
			<path class="st0" d="M359.9,69c0.5-0.1,0.7-0.1,2.4-0.9c0.9-0.4,2.2-1,3.7-1c2,0,3.4,1.6,3.4,4c0,4.2-3.8,6.1-6.1,6.5
				c-0.3-0.6-0.7-1.2-1.1-1.7c4.8-0.9,5.4-3.6,5.4-4.7c0-1.4-0.8-2.3-1.9-2.3c-1.3,0-3.5,1.1-5.1,2.6L359.9,69z M362.5,63.7
				c0.6,0.2,1.9,0.7,3.9,0.7c0.4,0,0.6,0,0.9-0.1c-0.1,0.7-0.2,1.4-0.2,2.1c-2.7-0.1-4.1-0.5-4.8-0.7L362.5,63.7z"/>
		</g>
	</g>
	<g>
		<g>
			<path class="st0" d="M122.1,57v-29h5.7v11.9h8.2V27.9h5.7v29h-5.7V45.4h-8.2V57H122.1z"/>
			<path class="st0" d="M146.4,57v-29h12.7v5.6h-7v6.2h7v5.6h-7v5.9h7V57H146.4z"/>
			<path class="st0" d="M163.4,27.9h10.5c5.2,0,8.7,4.3,8.7,9.3c0,3.2-1.7,7.4-6,8L183,57h-6.5l-6-11.5h-1.4V57h-5.7V27.9z
				 M169.1,40.3h3.7c2.5,0,3.9-0.8,3.9-3.2c0-2.4-1.4-3.2-3.9-3.2h-3.7V40.3z"/>
			<path class="st0" d="M199.1,27.7c-8.6,0-14.9,6.6-14.9,15.3c0,8.3,7.4,14,15.2,14c8.1,0,14.6-6.5,14.6-14.8
				C214,34.1,207.3,27.7,199.1,27.7z M199.4,50.8c-5.7,0-9-4-9-7.8c0-5.4,3.6-9.1,8.7-9.1c4.9,0,8.7,3.6,8.7,8.3
				C207.8,47,204.1,50.8,199.4,50.8z"/>
			<rect x="216.1" y="28.3" class="st0" width="13.4" height="5.6"/>
			<path class="st0" d="M222.8,36.3h6.9v5.6c0,0-6.2,0-7.1,0s-1.2,0.6-1.2,1.1s0.3,0.9,1.6,1c4.7,0.5,6.6,2.7,6.6,6.4
				c0,3.7-3,6.6-6.6,6.6h0.1h-6.8v-5.6l6.8,0c0.7,0,1-0.5,1-1c0-0.6-0.3-1-1-1c-2.8-0.3-7.2-1.8-7.2-6.5
				C215.9,39.2,219.2,36.3,222.8,36.3"/>
		</g>
		<g>
			<path class="st1" d="M284.6,57v-29h12.7v5.6h-7v6.2h7v5.6h-7v5.9h7V57H284.6z"/>
			<path class="st1" d="M267.7,57v-29h5.7v23.4h7V57H267.7z"/>
			<path class="st1" d="M357.3,57v-29H370v5.6h-7v6.2h7v5.6h-7v5.9h7V57H357.3z"/>
			<path class="st1" d="M301.7,27.9h9.1c7.5,0,11.5,6.6,11.5,14.5s-4,14.5-11.5,14.5h-9.1V27.9z M307.8,51.3h3
				c3.5,0,5.3-3.6,5.3-8.9s-1.8-8.9-5.3-8.9h-3V51.3z"/>
			<path class="st1" d="M354.8,42c0,7.6-5.6,15-15,15c-8.3,0-15-6.5-15-14.8c0-8.5,6.9-14.5,15.1-14.5c6.4,0,12.5,4.3,14.1,10h-6.8
				c-1.3-2.3-4.8-3.8-7.5-3.8c-4.5,0-8.6,3.8-8.6,8.3c0,4.7,3.8,8.5,8.6,8.5c3.3,0,6.9-1.9,7.8-4.7h-6.2v-5.6h13.4V42z"/>
			<path class="st1" d="M256,27.9h-4.8h-5.7v29h5.7v-5.9v-4.8h4.8c5.2,0,8.6-4.2,8.7-9.2C264.6,32.2,261.1,27.9,256,27.9z
				 M254.9,40.3h-3.7v-6.3h3.7c2.5,0,3.9,0.8,3.9,3.2S257.4,40.3,254.9,40.3z"/>
		</g>
	</g>
</g>
</svg>
